<svg width="648" height="501" viewBox="0 0 648 501" fill="none" xmlns="http://www.w3.org/2000/svg">
<g clip-path="url(#clip0_2_2)">
<rect width="648" height="501" fill="white"/>
<path d="M522 169C478.8 89.8 382.833 98 340.5 112H310C271 97 185 92 128 169C71 246 163 427 207 455C242.2 477.4 303.667 467.667 330 460C386 481.6 430.667 465.667 446 455C498 404 576 268 522 169Z" stroke="black"/>
<path d="M313.5 111.5C316.333 86 331.8 31 371 15L383 38.5C365.833 48 333.2 75.9 340 111.5" stroke="black"/>
<path d="M415 310C480.6 191.2 383 147.833 326 141C185.6 157.4 207.167 260.5 235.5 310L232 339C253.6 348.2 273.333 356.833 280.5 360L278 384C322.8 414.4 358.667 396.667 371 384L368 357.5C406.8 351.1 418.167 342.5 419 339L415 310Z" stroke="black"/>
<path d="M399 302.5C386.5 318.167 356.8 337 338 287C354.5 271.333 389.8 252.5 399 302.5Z" stroke="black"/>
<path d="M309 287C293.167 270.5 258.9 250.5 248.5 302.5C264.333 317.5 298.6 335.4 309 287Z" stroke="black"/>
<path d="M326.5 317H322L312 345.5L322 349.5L326.5 345.5L331.5 349.5L338 345.5L326.5 317Z" stroke="black"/>
</g>
<defs>
<clipPath id="clip0_2_2">
<rect width="648" height="501" fill="white"/>
</clipPath>
</defs>
</svg>
